HIERARCHY
ROOT Hips
{
 OFFSET 0.000000 0.000000 0.000000
 CHANNELS 6 Xposition Yposition Zposition Yrotation Xrotation Zrotation
 JOINT Chest
 {
  OFFSET 0.000000 9.585900 0.002600
  CHANNELS 3 Yrotation Xrotation Zrotation
  JOINT Chest2
  {
   OFFSET 0.000000 9.601200 -0.005300
   CHANNELS 3 Yrotation Xrotation Zrotation
   JOINT Chest3
   {
    OFFSET 0.000000 9.561800 0.000000
    CHANNELS 3 Yrotation Xrotation Zrotation
    JOINT Chest4
    {
     OFFSET 0.000000 9.552100 0.000000
     CHANNELS 3 Yrotation Xrotation Zrotation
     JOINT Neck
     {
      OFFSET 0.000000 14.453000 0.000000
      CHANNELS 3 Yrotation Xrotation Zrotation
      JOINT Head
      {
       OFFSET 0.000000 8.936500 -0.011300
       CHANNELS 3 Yrotation Xrotation Zrotation
       End Site
       {
        OFFSET 0.000000 17.073600 -0.006000
       }
      }
     }
     JOINT RightCollar
     {
      OFFSET -2.921100 9.558500 0.000000
      CHANNELS 3 Yrotation Xrotation Zrotation
      JOINT RightShoulder
      {
       OFFSET -13.519700 0.000000 0.000000
       CHANNELS 3 Yrotation Xrotation Zrotation
       JOINT RightElbow
       {
        OFFSET 0.000000 -29.696600 0.000000
        CHANNELS 3 Yrotation Xrotation Zrotation
        JOINT RightWrist
        {
         OFFSET 0.000000 -24.004700 0.000000
         CHANNELS 3 Yrotation Xrotation Zrotation
         End Site
         {
          OFFSET 0.000000 -17.728500 0.000000
         }
        }
       }
      }
     }
     JOINT LeftCollar
     {
      OFFSET 2.921100 9.558500 0.000000
      CHANNELS 3 Yrotation Xrotation Zrotation
      JOINT LeftShoulder
      {
       OFFSET 13.519700 0.000000 0.000000
       CHANNELS 3 Yrotation Xrotation Zrotation
       JOINT LeftElbow
       {
        OFFSET 0.000000 -29.696600 0.000000
        CHANNELS 3 Yrotation Xrotation Zrotation
        JOINT LeftWrist
        {
         OFFSET 0.000000 -24.004700 0.000000
         CHANNELS 3 Yrotation Xrotation Zrotation
         End Site
         {
          OFFSET 0.000000 -17.728500 0.000000
         }
        }
       }
      }
     }
    }
   }
  }
 }
 JOINT RightHip
 {
  OFFSET -7.771700 -0.012900 -0.001300
  CHANNELS 3 Yrotation Xrotation Zrotation
  JOINT RightKnee
  {
   OFFSET 0.000000 -40.869800 0.001200
   CHANNELS 3 Yrotation Xrotation Zrotation
   JOINT RightAnkle
   {
    OFFSET 0.000000 -39.717900 0.002100
    CHANNELS 3 Yrotation Xrotation Zrotation
    JOINT RightToe
    {
     OFFSET 0.000000 -4.965400 11.033500
     CHANNELS 3 Yrotation Xrotation Zrotation
     End Site
     {
      OFFSET 0.000000 -1.423100 5.872300
     }
    }
   }
  }
 }
 JOINT LeftHip
 {
  OFFSET 7.771700 -0.012900 -0.001300
  CHANNELS 3 Yrotation Xrotation Zrotation
  JOINT LeftKnee
  {
   OFFSET 0.000000 -40.869800 0.001200
   CHANNELS 3 Yrotation Xrotation Zrotation
   JOINT LeftAnkle
   {
    OFFSET 0.000000 -39.717900 0.002100
    CHANNELS 3 Yrotation Xrotation Zrotation
    JOINT LeftToe
    {
     OFFSET 0.000000 -4.965400 11.033500
     CHANNELS 3 Yrotation Xrotation Zrotation
     End Site
     {
      OFFSET 0.000000 -1.423100 5.872300
     }
    }
   }
  }
 }
}
MOTION
Frames: 8
Frame Time: 0.008333
-8.128760 53.964701 26.959612 179.960005 -30.699460 -11.431497 -0.209188 12.566126 5.285714 0.134354 7.378328 2.006517 0.188578 9.179220 2.496930 0.121844 7.350698 1.994314 4.233979 20.524401 0.006838 4.586284 -3.779195 -0.929093 0.796051 2.594111 -1.994979 -13.165007 -6.387495 6.039027 78.992910 -72.126501 -63.878851 13.098970 -8.698487 -15.041268 -9.075429 2.881355 -3.396947 5.273263 -1.491724 -0.648426 -99.493066 -73.323934 110.092796 11.186459 -8.546620 -10.594331 -17.897198 -33.194783 8.765790 32.094069 83.969925 28.522253 1.477701 -17.026220 -0.215449 -0.748934 1.429418 -0.316606 -16.867051 -46.868961 16.835111 171.343866 79.503854 167.011759 -1.068919 -16.238563 0.774096 -0.700346 -2.509533 -0.305244
-8.134166 54.027355 26.954319 179.949851 -30.659540 -11.458718 -0.190780 12.548308 5.331414 0.143804 7.393518 2.012522 0.203493 9.200639 2.509211 0.129922 7.361354 2.001069 4.244046 20.525652 0.026133 4.548539 -3.834370 -0.943577 0.772473 2.526747 -2.013703 -13.147964 -6.407787 6.047914 78.881165 -72.125504 -63.800691 13.029410 -8.635249 -15.037811 -9.108240 2.828794 -3.400109 5.270495 -1.514395 -0.658968 -99.278913 -73.277504 109.879389 11.169957 -8.534202 -10.519048 -17.956163 -33.231868 8.820000 32.336989 83.990729 28.743094 1.470934 -17.117570 -0.213009 -0.748823 1.476108 -0.323813 -16.800244 -46.892461 16.909329 171.362321 79.520425 167.023533 -1.183310 -16.293155 0.855266 -0.680085 -2.464475 -0.288383
-8.137925 54.083025 26.946689 179.947447 -30.633223 -11.488296 -0.171769 12.551888 5.378051 0.144861 7.394885 2.012506 0.215946 9.224553 2.518806 0.135363 7.370557 2.005924 4.221265 20.481325 0.014993 4.553281 -3.825851 -0.932503 0.758528 2.464340 -2.027418 -13.132143 -6.424811 6.065027 78.615324 -72.143356 -63.560795 13.066001 -8.635106 -15.060696 -9.132933 2.785370 -3.390656 5.283104 -1.529762 -0.682719 -98.933293 -73.281926 109.559032 11.184972 -8.587193 -10.496640 -18.002329 -33.264329 8.863399 32.463167 84.033914 28.864416 1.467109 -17.197402 -0.214365 -0.748224 1.485498 -0.327904 -16.793658 -46.904343 16.969140 171.414504 79.524993 167.074369 -1.231322 -16.339238 0.882763 -0.665863 -2.429745 -0.276194
-8.139995 54.131726 26.938647 179.955592 -30.605989 -11.519405 -0.161464 12.561287 5.419454 0.135646 7.370147 2.006083 0.239705 9.277784 2.534692 0.123942 7.339998 2.001257 4.240565 20.523709 0.032765 4.539266 -3.850636 -0.934189 0.768657 2.441425 -2.035625 -13.132456 -6.444559 6.085748 78.195761 -72.144339 -63.148833 13.124398 -8.681686 -15.116777 -9.150611 2.778354 -3.374526 5.308420 -1.534211 -0.712640 -98.856851 -73.325765 109.465695 11.178599 -8.602318 -10.425485 -18.056080 -33.300760 8.905419 32.624171 84.086497 29.018670 1.467950 -17.279881 -0.216064 -0.735707 1.517465 -0.327282 -16.805737 -46.934422 17.047629 171.404426 79.503944 167.040188 -1.281744 -16.348465 0.938510 -0.685400 -2.433140 -0.278733
-8.140813 54.174591 26.929928 179.973478 -30.579141 -11.548119 -0.129982 12.623056 5.471687 0.136548 7.377567 2.011421 0.227488 9.255133 2.530210 0.135271 7.370375 2.010723 4.233787 20.515877 0.034971 4.526201 -3.872377 -0.935567 0.785128 2.340837 -2.087511 -13.179507 -6.444485 6.126861 77.972652 -72.152605 -62.925187 13.139145 -8.656699 -15.145558 -9.216326 2.727804 -3.343059 5.354099 -1.556346 -0.755933 -98.867825 -73.376049 109.459951 11.196667 -8.609245 -10.342375 -18.125726 -33.336566 8.944682 32.743452 84.147220 29.124828 1.478334 -17.369017 -0.222034 -0.715980 1.557740 -0.325127 -16.826257 -46.965377 17.120428 171.422048 79.482049 167.030749 -1.328440 -16.366442 0.989764 -0.704439 -2.430053 -0.287860
-8.139800 54.212080 26.921867 -179.981565 -30.540594 -11.587453 -0.144900 12.645255 5.505472 0.145569 7.406651 2.019556 0.223647 9.257031 2.532720 0.145559 7.406629 2.019533 4.220471 20.491555 0.031300 4.521170 -3.874937 -0.932721 0.777652 2.214683 -2.130989 -13.162159 -6.447080 6.172679 77.693723 -72.155126 -62.673148 13.104540 -8.603752 -15.221343 -9.266980 2.627735 -3.324672 5.394241 -1.538952 -0.772171 -98.886520 -73.477939 109.450192 11.189289 -8.646128 -10.258603 -18.211457 -33.373567 8.976585 32.876577 84.202774 29.252178 1.492813 -17.480693 -0.226526 -0.699183 1.626865 -0.328056 -16.891107 -47.006141 17.182734 171.455999 79.460286 167.046988 -1.342720 -16.392662 1.019807 -0.721681 -2.412088 -0.298335
-8.137931 54.245627 26.913377 -179.953398 -30.505562 -11.610666 -0.147718 12.672905 5.532410 0.146150 7.423229 2.023733 0.214863 9.226742 2.527948 0.154562 7.474574 2.032509 4.207395 20.431123 0.016689 4.527216 -3.821040 -0.918579 0.783893 2.095547 -2.178802 -13.091149 -6.463987 6.247426 77.325461 -72.142939 -62.375441 13.085963 -8.591817 -15.300615 -9.307397 2.535612 -3.310157 5.446185 -1.478920 -0.769192 -99.026119 -73.619503 109.550630 11.159377 -8.709535 -10.179651 -18.260362 -33.424639 8.994329 33.021181 84.268823 29.409952 1.498058 -17.568972 -0.236254 -0.683697 1.660053 -0.324012 -16.931915 -47.040517 17.224415 171.539571 79.447959 167.126328 -1.357758 -16.444698 1.027665 -0.714771 -2.369342 -0.298947
-8.141323 54.276995 26.900687 -179.867111 -30.483975 -11.620645 -0.207958 12.727426 5.516882 0.145073 7.441669 2.027835 0.207982 9.195144 2.521618 0.152692 7.484354 2.035052 4.220079 20.516298 0.035893 4.520403 -3.856305 -0.930380 0.798053 2.030906 -2.221174 -13.061718 -6.467325 6.293357 76.975440 -72.189062 -62.044419 13.076541 -8.596540 -15.365590 -9.339932 2.500443 -3.301621 5.476515 -1.464634 -0.765394 -99.036389 -73.727576 109.535218 11.156333 -8.754955 -10.106258 -18.322348 -33.463617 8.945063 33.115350 84.348301 29.530452 1.488178 -17.658934 -0.269514 -0.652546 1.674950 -0.294080 -16.956134 -47.049730 17.244421 171.801831 79.455209 167.344843 -1.468137 -16.544940 1.061104 -0.651574 -2.275869 -0.257289
